<svg xmlns="http://www.w3.org/2000/svg"  viewBox="0 0 24 24" width="24px" height="24px"><path fill="#AD080F" d="M10.17,13.46l-0.01,5.06c0,4.81-0.01,5.08-0.06,5.08c-0.18,0-1.7,0.1-2.21,0.15c-0.33,0.03-1,0.1-1.48,0.16	c-0.49,0.06-0.89,0.1-0.9,0.09c0-0.01-0.01-5.41-0.01-12.01V0L10.17,13.46z"/><path fill="#AD080F" d="M18.49,0.01h-4.63l-0.01,5.31v5.329l4.63,13.341c0.02-0.01,0.02-5.42,0.02-12.01L18.49,0.01z"/><path fill="#DF0D12" d="M18.48,23.99h-0.04c-0.08,0-0.24-0.01-0.43-0.03c-1.07-0.13-2.48-0.26-3.62-0.31	c-0.37-0.02-0.68-0.04-0.69-0.04c0,0-0.29-0.84-0.84-2.41c-0.53-1.53-1.31-3.77-2.32-6.68l-0.37-1.06L5.5,0h4.65l0.2,0.57l0.88,2.53	L18.48,23.99z"/></svg>